<svg xmlns="http://www.w3.org/2000/svg" viewBox="0 0 240 160" width="240" height="160">
  <rect width="240" height="160" fill="#080c08"/>
  <defs>
    <linearGradient id="ramp" x1="0" x2="1">
      <stop offset="0" stop-color="#1a3d1f"/>
      <stop offset="1" stop-color="#5eff7e"/>
    </linearGradient>
  </defs>
  <g stroke-linecap="round" fill="none">
    <path d="M 20 14 Q 60 8 100 18 T 180 12 Q 215 20 226 30" stroke="url(#ramp)" stroke-width="4" opacity="0.7"/>
    <path d="M 24 28 Q 65 22 105 30 T 175 24" stroke="#5eff7e" stroke-width="3" opacity="0.5"/>
    <path d="M 30 60 Q 70 55 110 62 T 175 58" stroke="#3a7048" stroke-width="3" opacity="0.6"/>
    <path d="M 35 85 Q 75 80 115 88 T 180 82" stroke="#5eff7e" stroke-width="2.5" opacity="0.4"/>
    <path d="M 25 110 Q 70 105 110 112 T 200 108" stroke="#95ff62" stroke-width="3.5" opacity="0.8"/>
    <path d="M 30 135 Q 80 130 130 140 T 215 132" stroke="#3a7048" stroke-width="2" opacity="0.55"/>
  </g>
  <rect x="14" y="10" width="212" height="140" fill="none" stroke="#3a6a48" stroke-width="0.4" stroke-dasharray="2,2"/>
  <text x="120" y="156" text-anchor="middle" fill="#3a7048" font-family="Courier New" font-size="5" letter-spacing="2">VIEW: RELIEF</text>
</svg>
